<svg width="31" height="31" viewBox="0 0 31 31" fill="none" xmlns="http://www.w3.org/2000/svg">
<path d="M15.8943 2.82251C13.1602 2.82574 10.5391 3.91326 8.60582 5.84653C6.67255 7.7798 5.58502 10.401 5.5818 13.135C5.57852 15.3693 6.30834 17.5429 7.6593 19.3225C7.6593 19.3225 7.94055 19.6928 7.98649 19.7463L15.8943 29.0725L23.8059 19.7416C23.8471 19.6919 24.1293 19.3225 24.1293 19.3225L24.1302 19.3197C25.4805 17.5409 26.21 15.3683 26.2068 13.135C26.2036 10.401 25.116 7.7798 23.1828 5.84653C21.2495 3.91326 18.6284 2.82574 15.8943 2.82251ZM15.8943 16.885C15.1526 16.885 14.4276 16.6651 13.8109 16.253C13.1942 15.841 12.7136 15.2553 12.4297 14.5701C12.1459 13.8848 12.0717 13.1308 12.2164 12.4034C12.361 11.676 12.7182 11.0078 13.2426 10.4834C13.7671 9.95891 14.4353 9.60176 15.1627 9.45706C15.8901 9.31237 16.6441 9.38663 17.3294 9.67046C18.0146 9.95429 18.6003 10.4349 19.0123 11.0516C19.4244 11.6683 19.6443 12.3933 19.6443 13.135C19.6431 14.1292 19.2476 15.0823 18.5446 15.7853C17.8416 16.4883 16.8885 16.8838 15.8943 16.885Z" fill="white"/>
</svg>
