<svg width="31" height="31" viewBox="0 0 31 31" fill="none" xmlns="http://www.w3.org/2000/svg">
<path d="M9.16929 14.435C10.9693 17.9725 13.8693 20.86 17.4068 22.6725L20.1568 19.9225C20.4943 19.585 20.9943 19.4725 21.4318 19.6225C22.8318 20.085 24.3443 20.335 25.8943 20.335C26.5818 20.335 27.1443 20.8975 27.1443 21.585V25.9475C27.1443 26.635 26.5818 27.1975 25.8943 27.1975C14.1568 27.1975 4.64429 17.685 4.64429 5.94751C4.64429 5.26001 5.20679 4.69751 5.89429 4.69751H10.2693C10.9568 4.69751 11.5193 5.26001 11.5193 5.94751C11.5193 7.51001 11.7693 9.01001 12.2318 10.41C12.3693 10.8475 12.2693 11.335 11.9193 11.685L9.16929 14.435Z" fill="white"/>
</svg>
