<svg width="31" height="31" viewBox="0 0 31 31" fill="none" xmlns="http://www.w3.org/2000/svg">
<path d="M25.8943 5.94751H5.89429C4.51929 5.94751 3.40679 7.07251 3.40679 8.44751L3.39429 23.4475C3.39429 24.8225 4.51929 25.9475 5.89429 25.9475H25.8943C27.2693 25.9475 28.3943 24.8225 28.3943 23.4475V8.44751C28.3943 7.07251 27.2693 5.94751 25.8943 5.94751ZM25.3943 11.26L16.5568 16.785C16.1568 17.035 15.6318 17.035 15.2318 16.785L6.39429 11.26C6.26895 11.1896 6.15919 11.0946 6.07165 10.9806C5.98411 10.8666 5.92061 10.736 5.88501 10.5967C5.8494 10.4575 5.84242 10.3124 5.86448 10.1704C5.88655 10.0284 5.93721 9.89228 6.01339 9.77039C6.08957 9.6485 6.18969 9.54333 6.30769 9.46125C6.4257 9.37918 6.55913 9.3219 6.69991 9.29288C6.84069 9.26387 6.98589 9.26372 7.12673 9.29244C7.26757 9.32117 7.40112 9.37818 7.51929 9.46001L15.8943 14.6975L24.2693 9.46001C24.3875 9.37818 24.521 9.32117 24.6618 9.29244C24.8027 9.26372 24.9479 9.26387 25.0887 9.29288C25.2294 9.3219 25.3629 9.37918 25.4809 9.46125C25.5989 9.54333 25.699 9.6485 25.7752 9.77039C25.8514 9.89228 25.902 10.0284 25.9241 10.1704C25.9462 10.3124 25.9392 10.4575 25.9036 10.5967C25.868 10.736 25.8045 10.8666 25.7169 10.9806C25.6294 11.0946 25.5196 11.1896 25.3943 11.26Z" fill="white"/>
</svg>
