<svg width="109" height="31" viewBox="0 0 109 31" fill="none" xmlns="http://www.w3.org/2000/svg">
<path fill-rule="evenodd" clip-rule="evenodd" d="M102.007 30.9475L98.3781 16.525C97.9406 14.7951 97.6512 13.0643 97.3619 11.4777H97.2157C96.9264 13.2086 96.7802 14.7951 96.3447 16.6692L92.7142 30.9475H86.4726L94.7477 0.94954H99.6837L108.394 30.9475H102.007ZM6.78103 0.94954L10.4104 15.3711C10.9911 17.1019 11.1363 18.8337 11.4267 20.4183H11.5718C11.8622 18.6885 12.0074 16.9567 12.4429 15.2268L16.0723 0.94954H22.3139L14.0398 30.9475H9.10385L0.394287 0.94954H6.78103ZM26.8123 0.94954H32.7645V30.9475H26.8123V0.94954ZM66.4434 0.94954L69.4901 18.6895L71.9581 0.94954H79.9418L82.9905 30.9475H76.8941L75.4423 9.31419L74.4261 16.6692L71.9581 30.9475H67.3135L64.4099 16.525L63.3937 9.89114V9.31419H63.2485L62.3775 30.9475H55.9897L58.6039 0.94954H66.4434ZM47.5715 0.94954C46.5553 1.67072 45.8304 2.96782 45.2497 4.26594C43.6528 7.87184 45.3939 10.7555 46.8456 13.3518C46.9918 13.6402 47.2832 14.073 47.4263 14.5057C50.7654 19.9856 51.9268 24.0232 49.605 29.7916L49.0243 30.9465H41.7655C42.6365 30.2243 43.5066 29.2167 43.9421 28.0618C45.6852 24.1674 43.6528 20.5625 41.7655 16.9556C39.5889 12.7738 37.265 8.44776 39.733 2.5341C39.8792 1.95716 40.4599 0.94751 40.4599 0.94751H47.5715V0.94954Z" fill="white"/>
</svg>
